<svg width="67" height="87" viewBox="0 0 67 87" fill="none" xmlns="http://www.w3.org/2000/svg">
<g clip-path="url(#clip0_39_259)">
<path fill-rule="evenodd" clip-rule="evenodd" d="M64.5404 80.0546L56.1609 78.589L52.0038 85.8532C48.9857 89.4994 47.0704 83.5026 46.2288 81.414L38.1394 66.5246C40.004 65.8944 42.253 64.0749 44.5601 62.0287C49.1671 62.1208 53.462 61.3419 56.618 57.4196L65.9116 74.9428L66.7169 76.6278C67.3554 78.8156 67.0216 80.2599 64.5404 80.0546ZM33.5035 0.00722391C35.0778 -0.0564968 36.3184 0.474509 37.5736 1.25332C39.1624 2.23745 40.9544 4.18447 43.1672 5.4164C46.2796 7.15102 52.04 4.75796 54.9856 9.03432C56.705 11.5265 56.7848 13.4806 56.9154 15.4135C57.0533 17.495 57.4305 19.4137 59.6143 22.2316C63.2345 26.9044 63.989 30.0126 62.1245 33.2482C60.8549 35.4572 58.1778 36.682 57.5611 38.0839C56.2407 41.0575 57.699 43.3019 55.8997 46.7711C54.6446 49.1784 52.7148 50.7643 50.1392 51.5714C47.97 52.2511 45.7935 51.267 44.0523 51.9821C40.9979 53.2353 38.7489 56.1452 36.3184 56.8815C35.3825 57.1647 34.4466 57.3063 33.5107 57.2992C32.5749 57.3063 31.639 57.1647 30.7031 56.8815C28.2726 56.1452 26.0236 53.2353 22.9692 51.9821C21.228 51.267 19.0515 52.2582 16.8823 51.5714C14.3067 50.7643 12.3769 49.1784 11.1218 46.7711C9.3153 43.3019 10.7736 41.0575 9.4604 38.0839C8.84372 36.682 6.16663 35.4572 4.897 33.2482C3.01795 30.0126 3.77247 26.9044 7.39272 22.2387C9.57648 19.4208 9.95374 17.5021 10.0916 15.4206C10.2222 13.4877 10.302 11.5336 12.0214 9.0414C14.9742 4.76504 20.7347 7.1581 23.8398 5.42348C26.0526 4.19155 27.8446 2.24453 29.4334 1.2604C30.6813 0.474509 31.9292 -0.0635769 33.5035 0.00722391ZM28.3887 25.3397L32.1758 28.8585L38.6908 22.3944C39.3365 21.7572 39.7428 21.2475 40.5336 22.0404L43.1164 24.6176C43.9652 25.4389 43.9217 25.9132 43.1236 26.6779L33.6486 35.7687C31.9654 37.383 32.2556 37.4821 30.5435 35.8253L24.0357 29.5099C23.6802 29.1347 23.7165 28.7523 24.1083 28.3771L27.1046 25.3468C27.5616 24.8795 27.9244 24.9079 28.3887 25.3397ZM33.5035 11.4982C43.2107 11.4982 51.0824 19.1801 51.0824 28.6532C51.0824 38.1264 43.2107 45.8082 33.5035 45.8082C23.7963 45.8082 15.9246 38.1264 15.9246 28.6532C15.9246 19.173 23.7963 11.4982 33.5035 11.4982ZM2.45932 80.0546L10.8461 78.589L15.0032 85.8532C18.0213 89.4994 19.9366 83.5026 20.7782 81.414L28.8675 66.5246C27.003 65.8944 24.754 64.0749 22.4469 62.0287C17.8399 62.1208 13.545 61.3419 10.389 57.4196L1.08812 74.9428L0.282814 76.6278C-0.355627 78.8156 -0.0218967 80.2599 2.45932 80.0546Z" fill="white"/>
</g>
<defs>
<clipPath id="clip0_39_259">
<rect width="67" height="87" fill="white"/>
</clipPath>
</defs>
</svg>
